<?xml version="1.0" encoding="UTF-8"?>
<!-- Generator: visioncortex VTracer 0.6.3 -->
<svg version="1.1" xmlns="http://www.w3.org/2000/svg" width="1183" height="1280">
<path d="M0 0 C0.33 0.33 0.66 0.66 1 1 C2.16 1.13 3.32 1.25 4.52 1.38 C9.2 1.91 13.35 3.31 17.75 4.94 C18.49 5.2 19.23 5.47 20 5.74 C23.44 6.98 26.78 8.25 30 10 C30 10.66 30 11.32 30 12 C30.74 12.12 31.47 12.23 32.23 12.35 C35.03 13.01 36.91 13.9 39.36 15.36 C40.17 15.84 40.97 16.31 41.8 16.8 C42.63 17.3 43.46 17.8 44.31 18.31 C50.12 21.77 55.92 25.05 62 28 C62 28.66 62 29.32 62 30 C62.98 30.1 62.98 30.1 63.98 30.2 C68.23 31.33 71.59 33.52 75.31 35.81 C80.77 39.14 86.24 42.21 92 45 C92 45.66 92 46.32 92 47 C94.47 47.5 94.47 47.5 97 48 C97 48.66 97 49.32 97 50 C97.7 50.09 98.39 50.17 99.11 50.26 C102.69 51.17 105.16 52.8 108.25 54.81 C113.34 58.07 118.4 60.72 124 63 C124 63.66 124 64.32 124 65 C124.56 65.11 125.11 65.22 125.68 65.33 C128.4 66.11 130.59 67.28 133.06 68.65 C134.5 69.45 134.5 69.45 135.98 70.26 C136.97 70.81 137.97 71.37 139 71.94 C140.98 73.03 142.96 74.12 144.94 75.21 C145.81 75.7 146.69 76.19 147.59 76.69 C149.71 77.84 151.84 78.94 154 80 C154 80.66 154 81.32 154 82 C154.66 82.07 155.31 82.13 155.99 82.2 C160.19 83.32 163.5 85.48 167.19 87.75 C173.33 91.46 179.49 94.96 186 98 C186 98.66 186 99.32 186 100 C186.55 100.11 187.1 100.21 187.66 100.32 C192.69 101.78 197.16 104.86 201.69 107.44 C202.76 108.04 203.83 108.64 204.93 109.25 C205.95 109.83 206.96 110.4 208.01 111 C208.94 111.52 209.88 112.05 210.84 112.6 C213 114 213 114 214 116 C215.66 116.38 217.32 116.71 219 117 C219.66 117.33 220.32 117.66 221 118 C221 118.66 221 119.32 221 120 C221.69 120.09 222.39 120.17 223.1 120.26 C226.72 121.18 229.25 122.85 232.38 124.88 C236.83 127.76 241.1 130.03 246 132 C246 132.66 246 133.32 246 134 C247.65 134.33 249.3 134.66 251 135 C251 135.66 251 136.32 251 137 C251.67 137.07 252.35 137.15 253.04 137.23 C256.97 138.25 259.96 140.21 263.38 142.38 C268.14 145.37 272.77 147.91 278 150 C278 150.66 278 151.32 278 152 C279.65 152.33 281.3 152.66 283 153 C283 153.66 283 154.32 283 155 C283.67 155.07 284.34 155.15 285.03 155.22 C289.01 156.26 292.05 158.25 295.5 160.44 C299.58 162.99 303.44 165.39 308 167 C308 167.66 308 168.32 308 169 C309.65 169.33 311.3 169.66 313 170 C313 170.66 313 171.32 313 172 C313.65 172.06 314.29 172.12 314.96 172.19 C319.32 173.35 322.8 175.65 326.62 178 C328.14 178.92 329.65 179.84 331.16 180.75 C331.83 181.16 332.49 181.56 333.18 181.98 C335.13 183.15 335.13 183.15 338 184 C338 184.66 338 185.32 338 186 C338.78 186.14 339.57 186.29 340.38 186.44 C343 187 343 187 345 188 C345 188.66 345 189.32 345 190 C345.78 190.11 345.78 190.11 346.58 190.21 C350.06 191.34 352.77 193.43 355.69 195.56 C356.31 196.02 356.93 196.47 357.57 196.93 C366.73 203.66 374.08 210.97 381 220 C381.95 221.2 381.95 221.2 382.91 222.43 C396.76 240.98 399.16 262.83 399.13 285.22 C399.14 286.74 399.14 288.26 399.14 289.78 C399.15 293.92 399.15 298.07 399.15 302.22 C399.15 306.71 399.15 311.19 399.16 315.68 C399.16 324.46 399.17 333.24 399.17 342.02 C399.17 349.16 399.17 356.3 399.17 363.44 C399.18 383.71 399.19 403.97 399.19 424.24 C399.19 425.88 399.19 425.88 399.19 427.55 C399.19 429.19 399.19 429.19 399.19 430.86 C399.18 448.56 399.19 466.27 399.21 483.97 C399.22 502.17 399.23 520.37 399.23 538.57 C399.23 548.78 399.23 558.99 399.24 569.2 C399.25 577.89 399.25 586.59 399.25 595.28 C399.24 599.71 399.24 604.14 399.25 608.57 C399.26 612.64 399.26 616.7 399.25 620.77 C399.25 622.23 399.25 623.69 399.26 625.15 C399.3 638.4 398.95 652.53 394.38 665.12 C394.11 665.86 393.85 666.6 393.59 667.36 C389.17 679.44 383.53 689.22 374.52 698.41 C372 700.88 372 700.88 370.17 703.46 C365.06 709.44 357.92 713.48 351.31 717.62 C350.5 718.14 349.69 718.65 348.85 719.18 C341 724.08 332.97 728.65 324.92 733.2 C320.76 735.56 316.65 737.97 312.56 740.44 C299.58 748.28 286.52 755.99 273.38 763.56 C265.98 767.82 258.65 772.18 251.35 776.59 C243.95 781.04 236.51 785.43 229.05 789.8 C225.64 791.8 222.23 793.81 218.81 795.81 C218.12 796.22 217.44 796.62 216.73 797.04 C210.81 800.52 204.91 804.01 199 807.5 C189 813.41 178.99 819.3 168.98 825.19 C159.37 830.84 149.76 836.5 140.17 842.17 C134.47 845.54 128.77 848.9 123.06 852.25 C118.11 855.16 113.17 858.09 108.25 861.06 C100.75 865.59 93.19 870.01 85.62 874.44 C84.67 875 84.67 875 83.7 875.57 C80.58 877.39 77.46 879.22 74.34 881.04 C70.1 883.53 65.86 886.01 61.62 888.5 C60.97 888.88 60.31 889.27 59.64 889.66 C56.42 891.56 53.22 893.47 50.03 895.43 C25.57 910.41 -0.62 917.23 -29.16 911.04 C-40.9 907.86 -51.47 903.07 -62 897 C-63.53 896.13 -65.06 895.25 -66.6 894.38 C-69.21 892.89 -71.83 891.39 -74.44 889.89 C-81.39 885.91 -88.38 881.97 -95.38 878.06 C-104.59 872.91 -113.79 867.74 -122.97 862.54 C-127.01 860.26 -131.04 857.98 -135.08 855.71 C-143.24 851.15 -151.34 846.5 -159.44 841.81 C-170.2 835.58 -181.03 829.47 -191.89 823.41 C-197.92 820.05 -203.93 816.65 -209.94 813.25 C-216.65 809.45 -223.37 805.67 -230.12 801.94 C-237.35 797.94 -244.52 793.86 -251.68 789.75 C-259.74 785.14 -267.84 780.59 -275.95 776.07 C-283.66 771.77 -291.34 767.39 -299 763 C-314.61 754.05 -330.25 745.16 -345.96 736.38 C-354.79 731.44 -363.6 726.48 -372.39 721.48 C-374.86 720.08 -377.34 718.71 -379.83 717.35 C-391.08 711.11 -400.16 704.2 -407 693 C-407 692.34 -407 691.68 -407 691 C-407.66 691 -408.32 691 -409 691 C-409.96 688.81 -410.92 686.63 -411.88 684.44 C-412.14 683.83 -412.41 683.22 -412.69 682.59 C-412.96 681.98 -413.22 681.37 -413.49 680.75 C-413.73 680.2 -413.97 679.65 -414.22 679.08 C-416.27 673.6 -417.25 668.69 -417.26 662.84 C-417.27 661.8 -417.27 661.8 -417.27 660.75 C-417.28 658.44 -417.28 656.14 -417.27 653.83 C-417.28 652.16 -417.28 650.49 -417.29 648.82 C-417.3 644.23 -417.31 639.65 -417.31 635.06 C-417.31 630.11 -417.32 625.16 -417.33 620.21 C-417.35 609.38 -417.36 598.56 -417.37 587.73 C-417.37 580.97 -417.38 574.2 -417.38 567.44 C-417.4 548.7 -417.42 529.95 -417.42 511.21 C-417.42 510.01 -417.42 508.81 -417.42 507.58 C-417.42 505.15 -417.42 502.71 -417.42 500.28 C-417.43 499.08 -417.43 497.87 -417.43 496.63 C-417.43 495.42 -417.43 494.21 -417.43 492.97 C-417.43 473.41 -417.46 453.85 -417.49 434.29 C-417.53 414.19 -417.55 394.1 -417.55 374 C-417.55 362.72 -417.56 351.45 -417.59 340.17 C-417.61 330.56 -417.62 320.96 -417.61 311.35 C-417.6 306.45 -417.6 301.56 -417.62 296.66 C-417.64 292.17 -417.64 287.67 -417.62 283.18 C-417.62 281.56 -417.62 279.95 -417.64 278.34 C-417.82 256.12 -411.23 232.61 -396.44 215.66 C-395.37 214.42 -394.32 213.16 -393.28 211.88 C-388.27 205.9 -382.84 201.76 -376.25 197.62 C-374.74 196.66 -374.74 196.66 -373.2 195.67 C-366.1 191.18 -358.85 187.03 -351.44 183.07 C-344.18 179.18 -337.21 174.87 -330.23 170.49 C-325.19 167.33 -320.12 164.35 -314.85 161.58 C-310.89 159.38 -307.04 157 -303.19 154.62 C-296.66 150.6 -290.07 146.72 -283.39 142.94 C-279.9 140.94 -276.45 138.89 -273 136.81 C-260.76 129.44 -248.51 122.08 -236.06 115.06 C-228.75 110.92 -221.59 106.51 -214.43 102.1 C-208.9 98.7 -203.31 95.5 -197.59 92.42 C-193.75 90.31 -190.03 88.01 -186.31 85.69 C-180.57 82.14 -174.78 78.7 -168.88 75.44 C-162.78 72.07 -156.88 68.46 -151.01 64.73 C-145.7 61.39 -140.28 58.3 -134.79 55.26 C-129.5 52.31 -124.34 49.16 -119.2 45.96 C-115.34 43.59 -111.4 41.37 -107.45 39.15 C-102.09 36.1 -96.87 32.84 -91.68 29.5 C-88.54 27.5 -85.41 25.67 -82.06 24.04 C-77.63 21.88 -73.54 19.26 -69.38 16.62 C-49.09 4.03 -24.13 -4.94 0 0 Z M-11 0 C-7 1 -7 1 -7 1 Z " fill="#37DA86" transform="translate(600,183)"/>
<path d="M0 0 C2.9 2.46 4.33 5.58 5.94 8.96 C6.46 10.04 6.46 10.04 6.99 11.14 C14.79 27.65 16.25 44.43 16.19 62.46 C16.19 63.99 16.2 65.51 16.2 67.03 C16.21 71.17 16.21 75.31 16.2 79.45 C16.19 83.93 16.2 88.41 16.21 92.89 C16.22 101.66 16.21 110.42 16.21 119.18 C16.2 126.3 16.2 133.43 16.21 140.56 C16.21 141.57 16.21 142.59 16.21 143.64 C16.21 145.7 16.21 147.77 16.21 149.84 C16.21 169.18 16.21 188.53 16.2 207.87 C16.19 224.45 16.19 241.02 16.2 257.59 C16.21 276.87 16.21 296.14 16.21 315.42 C16.21 317.48 16.21 319.54 16.21 321.6 C16.2 322.61 16.2 323.63 16.2 324.67 C16.2 331.78 16.21 338.89 16.21 346 C16.22 354.67 16.21 363.35 16.2 372.02 C16.2 376.44 16.2 380.86 16.2 385.28 C16.21 389.34 16.21 393.4 16.19 397.45 C16.19 398.91 16.19 400.36 16.2 401.82 C16.24 415.07 15.88 429.19 11.31 441.77 C11.05 442.51 10.79 443.25 10.52 444.01 C6.11 456.08 0.47 465.87 -8.55 475.06 C-11.06 477.53 -11.06 477.53 -12.89 480.11 C-18 486.08 -25.14 490.12 -31.75 494.27 C-32.56 494.78 -33.38 495.29 -34.21 495.82 C-42.06 500.72 -50.09 505.29 -58.14 509.85 C-62.3 512.2 -66.41 514.61 -70.5 517.08 C-83.48 524.93 -96.55 532.63 -109.69 540.21 C-117.08 544.47 -124.41 548.83 -131.72 553.23 C-139.12 557.69 -146.56 562.07 -154.01 566.44 C-157.42 568.44 -160.84 570.45 -164.25 572.46 C-164.94 572.86 -165.63 573.27 -166.34 573.68 C-172.25 577.16 -178.16 580.65 -184.06 584.14 C-194.06 590.06 -204.07 595.95 -214.08 601.83 C-223.7 607.48 -233.3 613.14 -242.89 618.82 C-248.59 622.19 -254.29 625.54 -260 628.89 C-264.95 631.8 -269.89 634.74 -274.81 637.71 C-282.32 642.23 -289.88 646.65 -297.44 651.08 C-298.39 651.64 -298.39 651.64 -299.37 652.21 C-302.48 654.04 -305.6 655.86 -308.72 657.69 C-312.96 660.17 -317.2 662.66 -321.44 665.14 C-322.09 665.53 -322.75 665.91 -323.42 666.31 C-326.64 668.2 -329.85 670.12 -333.03 672.07 C-348.51 681.55 -365.9 689.96 -384.5 689.71 C-385.36 689.7 -386.23 689.69 -387.12 689.68 C-388.08 689.66 -388.08 689.66 -389.06 689.64 C-390.48 686.8 -390.2 684.4 -390.22 681.22 C-390.23 680.55 -390.23 679.88 -390.24 679.2 C-390.25 676.94 -390.26 674.69 -390.27 672.43 C-390.28 670.81 -390.29 669.19 -390.3 667.58 C-390.33 663.15 -390.35 658.72 -390.37 654.29 C-390.39 649.59 -390.42 644.89 -390.44 640.19 C-390.49 631.15 -390.54 622.1 -390.58 613.06 C-390.61 605.81 -390.65 598.57 -390.69 591.32 C-390.99 533.43 -391.24 475.54 -391.06 417.64 C-392.29 417.68 -393.51 417.71 -394.77 417.74 C-404.57 417.73 -413.34 411.46 -421.62 406.77 C-422.81 406.1 -423.99 405.44 -425.17 404.78 C-427.61 403.41 -430.04 402.04 -432.46 400.67 C-435.9 398.73 -439.34 396.81 -442.79 394.9 C-452.56 389.46 -462.29 383.97 -471.9 378.25 C-477.9 374.7 -484.01 371.36 -490.14 368.03 C-497.79 363.84 -505.31 359.43 -512.82 354.99 C-521.1 350.14 -529.51 345.56 -538.05 341.17 C-545.89 337.04 -553.29 333.07 -556.43 324.34 C-557.87 318.2 -557.47 311.74 -557.43 305.46 C-557.44 303.82 -557.44 302.17 -557.45 300.53 C-557.46 296.09 -557.45 291.65 -557.43 287.21 C-557.42 282.55 -557.43 277.89 -557.43 273.23 C-557.43 265.41 -557.42 257.58 -557.4 249.76 C-557.38 240.73 -557.37 231.7 -557.38 222.67 C-557.39 213.96 -557.38 205.26 -557.37 196.55 C-557.36 192.86 -557.36 189.16 -557.37 185.46 C-557.37 181.11 -557.36 176.75 -557.34 172.39 C-557.34 170.8 -557.34 169.2 -557.34 167.61 C-557.36 154.12 -556.68 143.75 -547.09 133.55 C-542.26 128.99 -537.03 125.66 -531.25 122.43 C-527.9 120.55 -524.64 118.55 -521.38 116.52 C-516.34 113.41 -511.25 110.48 -506.06 107.64 C-503.35 106.15 -500.64 104.65 -497.94 103.14 C-496.93 102.59 -496.93 102.59 -495.91 102.03 C-491.96 99.83 -488.29 97.43 -484.64 94.76 C-482.6 93.32 -480.47 92.16 -478.25 91.02 C-472.24 87.82 -466.48 84.28 -460.7 80.69 C-456.23 77.93 -451.71 75.3 -447.11 72.77 C-440.18 68.96 -433.43 64.88 -426.75 60.64 C-415.67 53.79 -402.51 45.94 -389.06 47.64 C-377.54 50.62 -366.55 56.98 -356.48 63.18 C-352.1 65.83 -347.57 68.22 -343.06 70.64 C-333.05 76.05 -323.17 81.68 -313.33 87.39 C-305.8 91.77 -298.27 96.13 -290.6 100.25 C-287.72 101.83 -284.89 103.48 -282.06 105.14 C-277.46 107.85 -272.82 110.43 -268.13 112.97 C-264.32 115.05 -260.53 117.15 -256.75 119.27 C-256.08 119.64 -255.41 120.01 -254.72 120.4 C-248.97 123.62 -243.52 126.91 -238.81 131.58 C-238.15 132.23 -237.48 132.88 -236.8 133.55 C-234.92 135.81 -234.01 137.88 -233.06 140.64 C-232.4 140.64 -231.74 140.64 -231.06 140.64 C-231.06 139.98 -231.06 139.32 -231.06 138.64 C-228.8 136.96 -226.54 135.41 -224.18 133.88 C-223.46 133.4 -222.74 132.93 -222.01 132.44 C-219.65 130.9 -217.3 129.36 -214.94 127.83 C-214.14 127.31 -213.34 126.79 -212.52 126.25 C-200.63 118.48 -188.62 111 -176.29 103.93 C-172.92 101.98 -169.58 99.97 -166.25 97.96 C-161.14 94.88 -156.02 91.85 -150.88 88.83 C-142.16 83.72 -133.49 78.52 -124.83 73.31 C-119.84 70.31 -114.86 67.32 -109.88 64.33 C-103.42 60.46 -96.96 56.59 -90.51 52.71 C-72.25 41.73 -72.25 41.73 -63.25 36.46 C-47.55 27.25 -31.99 17.8 -16.44 8.34 C-15.86 7.99 -15.27 7.63 -14.67 7.27 C-13.07 6.3 -11.48 5.33 -9.88 4.36 C-8.95 3.79 -8.02 3.23 -7.06 2.64 C-6.16 2.07 -5.25 1.49 -4.32 0.9 C-2.06 -0.36 -2.06 -0.36 0 0 Z " fill="#3A85F1" transform="translate(983.0625,406.35546875)"/>
<path d="M0 0 C4.78 1.38 8.75 3.49 12.94 6.12 C17.92 9.19 22.94 12.1 28.12 14.81 C35.36 18.6 42.44 22.65 49.52 26.72 C53.83 29.19 58.13 31.65 62.5 34 C67.85 36.88 73.11 39.91 78.38 42.94 C84.09 46.22 89.81 49.47 95.62 52.56 C101.89 55.89 108 59.45 114.13 63.02 C119.09 65.91 124.08 68.72 129.13 71.45 C141.32 78.04 153.36 84.9 165.37 91.79 C172.74 96.01 180.13 100.19 187.56 104.3 C197.57 109.84 207.43 115.58 217.19 121.56 C218.28 122.23 219.37 122.9 220.5 123.58 C223.36 125.35 226.18 127.16 229 129 C229.69 129.41 230.39 129.83 231.1 130.26 C232.8 131.4 232.8 131.4 235 134 C234.8 136.03 234.59 138.06 234.31 140.09 C233.63 146.46 233.84 152.91 233.84 159.32 C233.83 160.96 233.83 162.6 233.82 164.25 C233.81 168.69 233.8 173.13 233.8 177.57 C233.8 180.35 233.79 183.13 233.79 185.91 C233.77 194.61 233.76 203.32 233.76 212.02 C233.76 222.05 233.74 232.08 233.71 242.11 C233.69 249.88 233.68 257.65 233.68 265.42 C233.68 270.05 233.67 274.68 233.65 279.32 C233.64 283.67 233.63 288.03 233.64 292.38 C233.64 293.98 233.64 295.57 233.63 297.17 C233.23 309.94 233.23 309.94 238.76 321.03 C245.57 325.95 252.8 329.97 260.19 333.94 C262.66 335.28 265.13 336.62 267.61 337.96 C268.22 338.3 268.82 338.63 269.45 338.97 C275 341.98 280.47 345.1 285.94 348.24 C289.43 350.25 292.93 352.22 296.44 354.19 C310.45 362.05 324.44 369.95 338.38 377.94 C348.33 383.64 358.33 389.27 368.36 394.85 C371.61 396.66 374.84 398.48 378.05 400.37 C384.29 403.97 389.53 405.89 396.73 406.61 C397.86 406.8 397.86 406.8 399 407 C400.19 409.38 400.12 410.81 400.12 413.46 C400.13 414.41 400.13 415.35 400.13 416.32 C400.13 417.37 400.12 418.41 400.12 419.49 C400.12 421.15 400.12 421.15 400.12 422.84 C400.12 426.56 400.12 430.29 400.11 434.01 C400.11 436.67 400.11 439.33 400.11 441.99 C400.11 447.73 400.11 453.47 400.11 459.21 C400.1 467.51 400.09 475.81 400.09 484.11 C400.09 497.58 400.08 511.04 400.08 524.51 C400.07 537.59 400.06 550.67 400.05 563.75 C400.05 564.96 400.05 564.96 400.05 566.2 C400.05 570.24 400.05 574.28 400.05 578.33 C400.04 611.88 400.02 645.44 400 679 C398.41 679.01 396.83 679.02 395.24 679.03 C393.92 679.04 393.92 679.04 392.57 679.04 C375.57 678.76 359.43 671.32 345 663 C343.47 662.13 341.94 661.25 340.4 660.38 C337.79 658.89 335.17 657.39 332.56 655.89 C325.61 651.91 318.62 647.97 311.62 644.06 C302.41 638.91 293.21 633.74 284.03 628.54 C279.99 626.26 275.96 623.98 271.92 621.71 C263.76 617.15 255.66 612.5 247.56 607.81 C236.8 601.58 225.97 595.47 215.11 589.41 C209.08 586.05 203.07 582.65 197.06 579.25 C190.35 575.45 183.63 571.67 176.88 567.94 C169.65 563.94 162.48 559.86 155.32 555.75 C147.26 551.14 139.16 546.59 131.05 542.07 C123.34 537.77 115.66 533.39 108 529 C92.39 520.05 76.75 511.16 61.04 502.38 C52.21 497.44 43.4 492.48 34.61 487.48 C32.14 486.08 29.66 484.71 27.17 483.35 C15.92 477.11 6.84 470.2 0 459 C0 458.34 0 457.68 0 457 C-0.66 457 -1.32 457 -2 457 C-2.96 454.81 -3.92 452.63 -4.88 450.44 C-5.28 449.52 -5.28 449.52 -5.69 448.59 C-6.09 447.68 -6.09 447.68 -6.49 446.75 C-6.73 446.2 -6.97 445.65 -7.22 445.08 C-9.27 439.6 -10.25 434.69 -10.26 428.84 C-10.26 428.15 -10.27 427.46 -10.27 426.75 C-10.28 424.44 -10.28 422.14 -10.27 419.83 C-10.28 418.16 -10.28 416.49 -10.29 414.82 C-10.3 410.23 -10.31 405.65 -10.31 401.06 C-10.31 396.11 -10.32 391.16 -10.33 386.21 C-10.35 375.38 -10.36 364.56 -10.37 353.73 C-10.37 346.97 -10.38 340.2 -10.38 333.44 C-10.4 314.7 -10.42 295.95 -10.42 277.21 C-10.42 276.01 -10.42 274.81 -10.42 273.58 C-10.42 271.15 -10.42 268.71 -10.42 266.28 C-10.43 265.08 -10.43 263.87 -10.43 262.63 C-10.43 261.42 -10.43 260.21 -10.43 258.97 C-10.43 239.41 -10.46 219.85 -10.49 200.29 C-10.53 180.19 -10.55 160.1 -10.55 140 C-10.55 128.72 -10.56 117.45 -10.59 106.17 C-10.61 96.56 -10.62 86.96 -10.61 77.35 C-10.6 72.45 -10.6 67.56 -10.62 62.66 C-10.64 58.17 -10.64 53.67 -10.62 49.18 C-10.62 47.56 -10.62 45.95 -10.64 44.34 C-10.76 29.3 -7.98 14.46 -1 1 C-0.67 0.67 -0.34 0.34 0 0 Z " fill="#012E3F" transform="translate(193,417)"/>
<path d="M0 0 C1.62 0.98 3.24 1.97 4.85 2.96 C9.23 5.61 13.76 8 18.27 10.43 C28.29 15.83 38.17 21.46 48 27.17 C55.54 31.55 63.06 35.91 70.74 40.04 C73.62 41.61 76.44 43.26 79.27 44.93 C83.87 47.63 88.52 50.21 93.21 52.75 C97.01 54.83 100.8 56.93 104.59 59.05 C105.26 59.42 105.93 59.8 106.62 60.18 C119.32 67.31 129.19 75.82 133.85 90.2 C134.41 93.14 134.41 95.93 134.41 98.92 C134.42 99.9 134.42 99.9 134.42 100.89 C134.43 103.07 134.43 105.25 134.43 107.42 C134.44 108.99 134.44 110.55 134.45 112.11 C134.46 116.36 134.47 120.6 134.47 124.84 C134.48 127.5 134.48 130.15 134.49 132.8 C134.5 141.11 134.51 149.42 134.51 157.73 C134.52 167.31 134.53 176.88 134.56 186.46 C134.58 193.87 134.6 201.29 134.6 208.7 C134.6 213.12 134.6 217.54 134.62 221.97 C134.64 226.13 134.64 230.29 134.63 234.46 C134.63 235.98 134.63 237.5 134.64 239.03 C134.73 252.36 132.58 262.32 123.45 272.45 C117.88 277.81 111.48 281.35 104.73 284.96 C99.94 287.55 95.34 290.44 90.71 293.31 C85.13 296.76 79.45 300.05 73.77 303.36 C72.52 304.1 71.26 304.83 70 305.57 C67.4 307.09 64.79 308.62 62.19 310.14 C55.9 313.81 49.62 317.49 43.34 321.18 C42.43 321.71 42.43 321.71 41.51 322.25 C33.5 326.94 25.51 331.64 17.52 336.36 C16.64 336.89 15.76 337.41 14.85 337.95 C10.7 340.4 6.56 342.85 2.42 345.31 C0.91 346.2 -0.59 347.1 -2.1 347.99 C-2.76 348.38 -3.42 348.78 -4.1 349.18 C-15.01 355.63 -25.3 360.22 -38.3 357.56 C-46.26 354.93 -53.47 350.56 -60.73 346.43 C-61.56 345.95 -62.4 345.48 -63.26 344.99 C-67.61 342.53 -71.95 340.05 -76.28 337.56 C-81.87 334.34 -87.48 331.16 -93.1 327.99 C-94.05 327.45 -95.01 326.91 -95.99 326.36 C-97.92 325.27 -99.86 324.17 -101.8 323.08 C-104.75 321.41 -107.71 319.74 -110.66 318.07 C-119.37 313.13 -128.09 308.21 -136.85 303.36 C-145.98 298.31 -155.04 293.14 -164.09 287.94 C-166.73 286.42 -169.38 284.93 -172.04 283.43 C-173.72 282.47 -175.41 281.51 -177.1 280.55 C-177.87 280.12 -178.63 279.7 -179.42 279.25 C-186.29 275.33 -192.29 271.88 -195.09 264.13 C-196.54 257.98 -196.13 251.53 -196.1 245.24 C-196.1 243.6 -196.11 241.96 -196.11 240.31 C-196.12 235.87 -196.11 231.43 -196.1 226.99 C-196.09 222.33 -196.09 217.67 -196.09 213.01 C-196.09 205.19 -196.08 197.36 -196.06 189.54 C-196.04 180.51 -196.04 171.48 -196.04 162.45 C-196.05 153.74 -196.04 145.04 -196.03 136.33 C-196.03 132.64 -196.03 128.94 -196.03 125.25 C-196.03 120.89 -196.02 116.53 -196.01 112.17 C-196 110.58 -196 108.98 -196.01 107.39 C-196.03 93.9 -195.34 83.53 -185.75 73.33 C-180.92 68.78 -175.69 65.44 -169.91 62.21 C-166.56 60.33 -163.3 58.33 -160.04 56.3 C-155.01 53.19 -149.92 50.26 -144.73 47.43 C-142.01 45.93 -139.31 44.43 -136.6 42.93 C-135.93 42.56 -135.26 42.19 -134.57 41.81 C-130.62 39.61 -126.95 37.21 -123.3 34.54 C-121.26 33.1 -119.14 31.94 -116.91 30.8 C-110.91 27.6 -105.14 24.06 -99.36 20.47 C-94.89 17.71 -90.38 15.08 -85.78 12.55 C-78.85 8.74 -72.09 4.66 -65.41 0.43 C-40.62 -14.91 -24.84 -14.34 0 0 Z " fill="#CFEEFB" transform="translate(621.7265625,466.57421875)"/>
<path d="M0 0 C1.84 1.05 3.69 2.11 5.53 3.16 C8.92 5.09 12.31 7.03 15.7 8.98 C21.57 12.34 27.47 15.64 33.38 18.94 C49.66 28.04 65.9 37.22 82.09 46.48 C91.41 51.81 100.75 57.09 110.1 62.36 C112.96 63.98 115.83 65.6 118.69 67.22 C126.67 71.73 134.65 76.25 142.65 80.72 C143.76 81.34 144.88 81.96 146.02 82.6 C148.15 83.79 150.27 84.97 152.4 86.16 C170.93 96.49 170.93 96.49 176.88 102.06 C177.76 102.88 178.64 103.69 179.55 104.54 C182 107 182 107 184.2 109.75 C185.8 112.08 185.8 112.08 188 113 C188 113.99 188 114.98 188 116 C186.85 116.63 185.7 117.26 184.52 117.91 C176.35 122.4 168.26 126.95 160.36 131.91 C157.94 133.41 155.52 134.89 153.08 136.34 C142.49 142.67 132.28 149.48 122.15 156.51 C121.12 157.22 120.09 157.94 119.03 158.67 C118.11 159.31 117.19 159.95 116.24 160.61 C114 162 114 162 112 162 C112 162.66 112 163.32 112 164 C111.34 164 110.68 164 110 164 C108.7 162.46 108.7 162.46 107.25 160.38 C102.17 153.45 97.53 149.48 89.86 145.5 C87.18 144.1 84.63 142.59 82.06 141 C77.42 138.17 72.62 135.76 67.74 133.36 C62.49 130.75 57.61 127.75 52.69 124.56 C48.48 121.86 44.23 119.55 39.73 117.38 C35.16 115.07 30.76 112.48 26.33 109.92 C21.56 107.17 16.75 104.49 11.91 101.87 C7.41 99.41 3.04 96.79 -1.31 94.06 C-6.46 90.86 -11.68 88.04 -17.15 85.42 C-19.88 84.06 -22.51 82.56 -25.16 81.03 C-28.26 79.3 -31.47 77.8 -34.69 76.31 C-35.34 76.01 -35.99 75.7 -36.66 75.38 C-46.19 70.94 -53.79 71.04 -63.68 74.6 C-72.58 78.35 -80.93 83.1 -88.86 88.59 C-92.05 90.69 -95.41 92.43 -98.78 94.23 C-108.21 99.4 -117.41 105.02 -126.62 110.58 C-129.38 112.22 -132.16 113.83 -134.94 115.44 C-138.88 117.72 -142.74 120.09 -146.56 122.56 C-150.89 125.35 -155.31 127.84 -159.85 130.27 C-166.66 134.01 -173.32 138.03 -180 142 C-180.97 142.57 -181.93 143.14 -182.93 143.73 C-184.51 144.67 -186.09 145.62 -187.67 146.58 C-189.37 147.62 -191.08 148.63 -192.8 149.64 C-200.71 154.4 -206.62 159.76 -211 168 C-214.03 166.55 -216.83 164.9 -219.66 163.09 C-230.7 156.07 -241.81 149.28 -253.19 142.81 C-253.77 142.48 -254.36 142.15 -254.96 141.8 C-261.09 138.32 -267.23 134.87 -273.41 131.46 C-274.39 130.92 -275.37 130.37 -276.38 129.81 C-278.2 128.8 -280.03 127.79 -281.87 126.8 C-283.07 126.14 -283.07 126.14 -284.29 125.45 C-284.99 125.07 -285.69 124.69 -286.4 124.3 C-288.42 122.66 -288.73 121.56 -289 119 C-285.05 110.39 -277.99 104.07 -270.05 99.26 C-269.48 98.92 -268.91 98.57 -268.33 98.21 C-266.55 97.14 -264.78 96.07 -263 95 C-261.94 94.37 -260.89 93.73 -259.8 93.08 C-256.6 91.17 -253.39 89.27 -250.19 87.38 C-249.02 86.68 -247.85 85.99 -246.68 85.3 C-237.88 80.09 -229.05 74.94 -220.22 69.8 C-214.38 66.4 -208.57 62.96 -202.79 59.46 C-197 55.98 -191.15 52.58 -185.31 49.19 C-177.95 44.9 -170.61 40.59 -163.31 36.19 C-154.57 30.91 -145.76 25.74 -136.94 20.59 C-129.37 16.17 -121.83 11.71 -114.33 7.17 C-104.79 1.41 -95.2 -4.25 -85.5 -9.75 C-84.48 -10.33 -83.46 -10.92 -82.41 -11.52 C-51.96 -28.61 -27.55 -15.88 0 0 Z " fill="#35BE71" transform="translate(640,383)"/>
<path d="M0 0 C3.88 1.46 7.43 3.24 11.06 5.24 C11.64 5.56 12.21 5.87 12.81 6.2 C14.69 7.23 16.56 8.27 18.44 9.31 C19.08 9.67 19.73 10.03 20.39 10.39 C69.72 37.72 69.72 37.72 78 46 C77.8 48.02 77.58 50.05 77.3 52.07 C76.64 58.45 76.84 64.9 76.84 71.32 C76.83 72.96 76.83 74.6 76.82 76.25 C76.81 80.69 76.8 85.13 76.8 89.57 C76.8 92.35 76.79 95.13 76.79 97.91 C76.77 106.61 76.76 115.32 76.76 124.02 C76.76 134.05 76.74 144.08 76.71 154.11 C76.69 161.88 76.68 169.65 76.68 177.42 C76.68 182.05 76.67 186.68 76.65 191.32 C76.64 195.67 76.63 200.03 76.64 204.38 C76.64 205.98 76.64 207.57 76.63 209.17 C76.23 221.94 76.23 221.94 81.76 233.03 C88.57 237.95 95.8 241.97 103.19 245.94 C105.66 247.28 108.13 248.62 110.61 249.96 C111.52 250.46 111.52 250.46 112.45 250.97 C118 253.98 123.47 257.1 128.94 260.24 C132.43 262.25 135.93 264.22 139.44 266.19 C153.45 274.05 167.44 281.95 181.38 289.94 C191.33 295.64 201.33 301.27 211.36 306.85 C214.61 308.66 217.84 310.48 221.05 312.37 C227.29 315.97 232.53 317.89 239.73 318.61 C240.48 318.74 241.23 318.87 242 319 C243.63 322.25 243.13 325.83 243.11 329.4 C243.11 330.27 243.11 331.13 243.11 332.03 C243.11 334.91 243.11 337.79 243.1 340.66 C243.1 342.66 243.09 344.65 243.09 346.64 C243.09 351.89 243.08 357.14 243.07 362.39 C243.06 367.75 243.05 373.11 243.05 378.46 C243.04 388.97 243.02 399.49 243 410 C228.14 410.34 217.68 406.35 204.88 398.94 C203.69 398.26 202.49 397.59 201.3 396.91 C197.86 394.96 194.43 392.98 191 391 C190.11 390.49 189.23 389.98 188.32 389.45 C185.25 387.68 182.19 385.91 179.13 384.13 C171.65 379.77 164.1 375.55 156.54 371.33 C146.63 365.8 136.74 360.21 126.85 354.61 C123.96 352.98 121.08 351.35 118.19 349.72 C108.99 344.52 99.79 339.32 90.62 334.06 C82.98 329.68 75.31 325.36 67.62 321.06 C56.72 314.96 45.81 308.86 34.96 302.68 C32.9 301.51 30.85 300.35 28.79 299.2 C25.54 297.38 22.3 295.53 19.06 293.69 C17.58 292.86 17.58 292.86 16.07 292.02 C7.99 287.38 0.64 282.09 -2.94 273.19 C-3.51 271.82 -3.51 271.82 -4.09 270.42 C-5.36 267.05 -6.13 264.38 -6.13 260.8 C-6.14 259.94 -6.14 259.07 -6.15 258.19 C-6.15 257.24 -6.15 256.29 -6.15 255.32 C-6.15 254.31 -6.15 253.31 -6.16 252.27 C-6.17 248.89 -6.17 245.5 -6.18 242.12 C-6.18 239.69 -6.19 237.27 -6.2 234.85 C-6.22 227.57 -6.23 220.29 -6.24 213.01 C-6.24 209.58 -6.25 206.15 -6.25 202.72 C-6.27 191.3 -6.28 179.89 -6.29 168.47 C-6.29 165.51 -6.29 162.55 -6.3 159.59 C-6.3 158.85 -6.3 158.11 -6.3 157.35 C-6.3 145.45 -6.33 133.54 -6.36 121.63 C-6.4 109.39 -6.41 97.15 -6.42 84.92 C-6.42 78.05 -6.43 71.18 -6.45 64.32 C-6.48 57.85 -6.48 51.38 -6.47 44.92 C-6.47 42.55 -6.48 40.18 -6.49 37.82 C-6.64 9.96 -6.64 9.96 0 0 Z " fill="#000102" transform="translate(350,505)"/>
<path d="M0 0 C0.97 1.85 1.92 3.71 2.88 5.56 C3.41 6.6 3.94 7.63 4.49 8.69 C7.64 15.61 8.29 21.39 8.27 28.9 C8.27 29.88 8.28 30.87 8.28 31.88 C8.29 35.15 8.29 38.43 8.29 41.71 C8.3 44.07 8.3 46.42 8.31 48.77 C8.33 55.17 8.33 61.56 8.33 67.95 C8.34 71.94 8.34 75.94 8.35 79.93 C8.36 93.16 8.37 106.39 8.37 119.62 C8.37 120.33 8.37 121.05 8.37 121.78 C8.37 122.49 8.37 123.21 8.37 123.94 C8.37 135.49 8.39 147.04 8.42 158.59 C8.45 170.47 8.46 182.35 8.46 194.22 C8.46 200.89 8.46 207.55 8.48 214.21 C8.5 220.48 8.5 226.75 8.49 233.01 C8.49 235.31 8.49 237.6 8.5 239.9 C8.59 256.68 7.64 270.21 -3 284 C-3.69 284.91 -4.39 285.82 -5.1 286.75 C-14.58 297.53 -27.72 303.83 -40.07 310.78 C-45.79 314 -51.45 317.34 -57.11 320.67 C-59.53 322.1 -61.96 323.52 -64.39 324.94 C-72.96 329.97 -81.52 335.02 -90.07 340.09 C-93.89 342.35 -97.72 344.6 -101.54 346.84 C-108.14 350.71 -114.7 354.62 -121.25 358.56 C-129.65 363.62 -138.1 368.6 -146.56 373.56 C-147.19 373.93 -147.81 374.29 -148.45 374.67 C-156.89 379.61 -165.34 384.51 -173.81 389.39 C-178.04 391.84 -182.23 394.35 -186.38 396.94 C-192.1 400.48 -197.87 403.92 -203.69 407.31 C-204.55 407.83 -205.42 408.34 -206.32 408.88 C-213.86 413.24 -221.36 416.13 -230.12 416.69 C-231.06 416.75 -231.99 416.82 -232.95 416.89 C-233.62 416.92 -234.3 416.96 -235 417 C-236.62 413.75 -236.18 410.17 -236.21 406.6 C-236.22 405.73 -236.23 404.87 -236.24 403.97 C-236.27 401.09 -236.29 398.21 -236.32 395.34 C-236.34 393.34 -236.36 391.35 -236.38 389.36 C-236.43 384.11 -236.48 378.86 -236.53 373.61 C-236.58 368.25 -236.64 362.89 -236.69 357.54 C-236.8 347.03 -236.9 336.51 -237 326 C-236.05 325.74 -235.11 325.48 -234.13 325.22 C-232.26 324.7 -232.26 324.7 -230.35 324.16 C-228.49 323.65 -228.49 323.65 -226.6 323.13 C-221.44 321.51 -216.93 319.13 -212.25 316.44 C-211.31 315.91 -210.36 315.38 -209.39 314.83 C-202.94 311.19 -196.59 307.39 -190.3 303.49 C-183.29 299.14 -176.18 294.97 -169.06 290.81 C-166.56 289.35 -164.05 287.88 -161.54 286.42 C-160.92 286.05 -160.29 285.69 -159.65 285.31 C-153.04 281.44 -146.46 277.54 -139.88 273.62 C-132.19 269.06 -124.49 264.53 -116.75 260.06 C-91.49 247.02 -91.49 247.02 -75 225 C-74.05 221.08 -73.87 217.42 -73.85 213.39 C-73.85 212.74 -73.85 212.09 -73.84 211.42 C-73.83 209.25 -73.83 207.08 -73.82 204.9 C-73.82 203.34 -73.81 201.78 -73.8 200.22 C-73.78 195.1 -73.77 189.98 -73.76 184.86 C-73.76 183.1 -73.75 181.33 -73.75 179.57 C-73.73 171.27 -73.72 162.97 -73.71 154.67 C-73.7 145.11 -73.67 135.55 -73.63 125.99 C-73.6 118.59 -73.59 111.18 -73.58 103.78 C-73.58 99.37 -73.57 94.95 -73.55 90.54 C-73.52 86.38 -73.52 82.22 -73.53 78.06 C-73.53 76.54 -73.52 75.02 -73.51 73.5 C-73.44 65.75 -73.63 59.07 -77.24 52.02 C-78.18 49.53 -78.04 48.44 -77 46 C-74.7 44.18 -72.48 42.61 -70.02 41.04 C-69.3 40.57 -68.59 40.1 -67.85 39.61 C-65.51 38.08 -63.16 36.57 -60.81 35.06 C-59.2 34.02 -57.59 32.97 -55.98 31.93 C-44.92 24.76 -33.73 17.88 -22.3 11.33 C-18.59 9.18 -14.92 6.97 -11.25 4.75 C-3.39 0 -3.39 0 0 0 Z " fill="#3071B3" transform="translate(829,499)"/>
<path d="M0 0 C0.33 0 0.66 0 1 0 C1 128.7 1 257.4 1 390 C0.67 390 0.34 390 0 390 C0 261.3 0 132.6 0 0 Z " fill="#022F40" transform="translate(182,456)"/>
</svg>
